<?xml version="1.0" standalone="no"?>
<!DOCTYPE svg PUBLIC "-//W3C//DTD SVG 20010904//EN"
 "http://www.w3.org/TR/2001/REC-SVG-20010904/DTD/svg10.dtd">
<svg version="1.0" xmlns="http://www.w3.org/2000/svg"
 width="117.000000pt" height="117.000000pt" viewBox="0 0 117.000000 117.000000"
 preserveAspectRatio="xMidYMid meet">
<metadata>
Created by potrace 1.11, written by Peter Selinger 2001-2013
</metadata>
<g transform="translate(0.000000,117.000000) scale(0.100000,-0.100000)"
fill="#000000" stroke="none">
<path d="M500 1147 c-3 -3 -26 -8 -52 -11 -57 -8 -106 -28 -175 -72 -53 -34
-143 -115 -143 -129 0 -4 -11 -20 -24 -35 -13 -16 -38 -68 -56 -117 -29 -78
-33 -100 -33 -193 -1 -115 21 -203 70 -290 41 -71 133 -180 153 -180 5 0 10
-3 10 -8 0 -8 40 -30 113 -61 182 -77 423 -40 581 89 47 39 96 93 96 106 0 7
4 14 8 16 15 5 79 160 91 216 26 123 4 258 -62 382 -31 58 -142 180 -164 180
-7 0 -13 3 -13 8 0 9 -60 44 -83 49 -10 2 -32 10 -49 19 -16 8 -40 18 -51 20
-35 8 -212 17 -217 11z"/>
</g>
</svg>
